<?xml version="1.0" standalone="no"?>
<!DOCTYPE svg PUBLIC "-//W3C//DTD SVG 20010904//EN"
 "http://www.w3.org/TR/2001/REC-SVG-20010904/DTD/svg10.dtd">
<svg version="1.0" xmlns="http://www.w3.org/2000/svg"
 width="1280.000000pt" height="1280.000000pt" viewBox="0 0 1280.000000 1280.000000"
 preserveAspectRatio="xMidYMid meet">
<metadata>
Created by potrace 1.15, written by Peter Selinger 2001-2017
</metadata>
<g transform="translate(0.000000,1280.000000) scale(0.100000,-0.100000)"
fill="#000000" stroke="none">
<path d="M6250 11623 c-448 -33 -852 -144 -1240 -338 -71 -36 -137 -65 -146
-65 -37 0 -149 -65 -211 -123 -109 -101 -176 -202 -295 -443 l-109 -220 3
-115 c3 -113 3 -114 28 -117 14 -2 29 -10 33 -18 4 -8 17 -14 27 -14 13 0 20
-7 20 -20 0 -11 9 -25 20 -32 11 -7 20 -18 20 -25 0 -7 7 -13 15 -13 13 0 15
-37 15 -275 0 -236 -2 -276 -15 -281 -9 -4 -15 -19 -15 -35 0 -24 -4 -29 -24
-29 -22 0 -26 -6 -32 -46 -7 -49 2 -146 16 -154 4 -3 17 -1006 29 -2230 12
-1224 26 -2619 31 -3100 13 -1157 13 -1160 -2 -1165 -7 -2 -34 -6 -60 -10
l-48 -6 0 -150 c0 -138 1 -150 20 -161 31 -20 26 -58 -10 -71 -16 -6 -30 -18
-30 -27 0 -11 667 -554 1209 -982 l47 -38 1622 254 c892 139 1624 255 1627
258 11 10 -6 33 -35 50 -37 21 -43 72 -10 81 19 5 20 14 20 166 l0 161 -80 40
-81 41 6 292 c3 160 12 942 21 1737 38 3675 54 4904 63 4909 9 6 17 96 13 167
-2 32 -7 43 -22 47 -14 4 -20 14 -20 35 0 17 -6 32 -15 36 -13 5 -15 47 -15
300 0 286 1 295 20 301 11 3 20 13 20 21 0 8 5 14 11 14 5 0 17 16 25 35 10
24 21 35 34 35 12 0 23 7 26 15 4 9 19 15 35 15 28 0 29 1 29 53 0 30 3 88 6
128 5 61 4 78 -9 89 -9 8 -71 69 -139 135 -130 127 -214 196 -288 236 -25 13
-71 43 -103 67 -367 276 -865 480 -1347 552 -234 34 -518 48 -710 33z m-1012
-3200 l2 -383 -45 0 -45 0 0 386 0 385 43 -3 42 -3 3 -382z m1322 2 l0 -375
-110 0 -110 0 0 375 0 375 110 0 110 0 0 -375z m0 -455 c0 -6 -43 -10 -110
-10 -67 0 -110 4 -110 10 0 6 43 10 110 10 67 0 110 -4 110 -10z m-1320 -374
c0 -161 3 -314 6 -340 l7 -46 -51 0 -51 0 -1 340 0 340 45 0 45 0 0 -294z
m1320 -30 c0 -277 -2 -315 -16 -320 -9 -3 -58 -6 -110 -6 l-94 0 0 314 0 315
43 4 c23 2 72 4 110 5 l67 2 0 -314z m0 -481 l0 -85 -110 0 -110 0 0 85 0 85
110 0 110 0 0 -85z m-1310 0 l0 -46 -37 7 c-52 9 -53 10 -53 50 0 34 0 34 45
34 l45 0 0 -45z m-27 -140 l27 -5 0 -280 0 -280 -45 0 -45 0 0 289 c0 320 -7
291 63 276z m1337 -265 l0 -240 -57 0 c-32 0 -82 -3 -110 -6 l-53 -7 0 241 0
241 73 4 c39 1 89 4 110 5 l37 2 0 -240z m0 -464 l0 -153 -31 -7 c-17 -3 -67
-6 -110 -6 l-79 0 0 155 0 154 88 4 c48 1 97 4 110 5 22 2 22 2 22 -152z
m-1310 -6 c0 -49 -3 -90 -6 -90 -4 0 -24 5 -45 12 l-39 11 0 79 0 78 45 0 45
0 0 -90z m-27 -196 l27 -6 0 -224 0 -224 -44 0 -45 0 -1 236 c-1 221 0 235 17
230 10 -3 30 -8 46 -12z m1337 -204 c0 -120 -3 -162 -12 -164 -7 -3 -57 -7
-110 -10 l-98 -5 0 164 0 164 93 4 c50 1 100 4 110 5 16 2 17 -12 17 -158z m0
-464 l0 -224 -77 -6 c-43 -4 -93 -8 -110 -11 l-33 -4 0 224 0 224 43 5 c23 4
67 8 97 9 30 2 61 4 68 5 9 2 12 -49 12 -222z m-1302 -8 l3 -137 -46 17 -45
16 0 117 c0 127 1 129 55 126 l30 -2 3 -137z m2 -424 l0 -162 -45 -4 -45 -3 0
182 0 182 45 -17 45 -16 0 -162z m1300 21 l0 -85 -33 0 c-19 0 -68 -3 -110 -6
l-77 -7 0 86 0 86 43 4 c23 2 72 4 110 5 l67 2 0 -85z m0 -454 l0 -289 -77 -6
c-43 -4 -93 -10 -111 -13 l-32 -5 2 293 3 294 65 6 c36 3 84 6 108 7 l42 2 0
-289z m-1300 -1 c0 -99 -2 -180 -5 -180 -3 0 -24 9 -45 20 l-40 20 0 160 0
160 45 0 45 0 0 -180z m0 -432 l0 -108 -45 0 -45 0 0 130 0 130 45 -22 45 -22
0 -108z m1300 33 c0 -9 -36 -15 -152 -27 -45 -4 -68 -3 -68 4 0 10 20 14 115
25 61 8 105 7 105 -2z"/>
<path d="M4212 1290 c-29 -11 -72 -33 -95 -50 -152 -111 -191 -373 -86 -571
42 -78 97 -124 177 -149 196 -61 377 17 443 190 l19 50 -22 9 c-13 5 -37 11
-54 15 -29 6 -31 5 -43 -34 -28 -93 -112 -150 -221 -150 -109 0 -176 44 -222
145 -18 41 -22 68 -23 150 0 123 16 182 66 239 49 55 105 78 189 79 101 0 167
-42 200 -128 9 -25 13 -26 53 -20 60 10 64 17 37 76 -31 66 -103 131 -170 152
-69 22 -180 21 -248 -3z"/>
<path d="M6068 1250 l-48 -30 0 -70 0 -70 -36 0 c-35 0 -35 -1 -32 -37 3 -35
6 -38 35 -41 l31 -3 4 -212 c3 -229 7 -246 58 -272 30 -16 116 -20 137 -7 8 5
10 21 6 45 -5 33 -9 37 -42 43 -62 11 -61 9 -61 215 l0 188 48 3 c47 3 47 3
50 41 l3 37 -50 0 -50 0 -3 100 -3 99 -47 -29z"/>
<path d="M7538 1250 l-48 -30 0 -70 0 -70 -36 0 c-35 0 -35 -1 -32 -37 3 -35
6 -38 38 -43 l35 -5 1 -210 c1 -234 5 -253 66 -274 39 -14 125 -14 133 -1 3 5
3 26 -1 45 -6 32 -10 36 -45 41 -23 4 -44 14 -49 25 -6 10 -10 99 -10 198 l0
180 48 3 c47 3 47 3 50 41 l3 37 -50 0 -50 0 -3 100 -3 99 -47 -29z"/>
<path d="M4912 1077 c-55 -17 -118 -81 -141 -143 -40 -104 -24 -264 33 -339
108 -141 370 -118 446 40 31 64 39 199 17 276 -34 115 -126 180 -252 178 -38
-1 -85 -6 -103 -12z m183 -92 c62 -36 80 -79 80 -190 0 -72 -4 -98 -21 -130
-30 -57 -75 -85 -139 -85 -66 0 -111 29 -143 90 -21 39 -23 56 -20 136 3 79 8
97 30 131 49 74 136 94 213 48z"/>
<path d="M5562 1069 c-24 -12 -49 -30 -55 -40 -18 -29 -27 -23 -27 16 0 34 -1
35 -40 35 l-40 0 0 -285 0 -285 44 0 44 0 4 193 c4 218 14 255 78 289 61 32
154 16 177 -31 4 -9 10 -113 13 -231 l5 -215 48 -3 47 -3 0 223 c0 212 -1 226
-22 268 -32 62 -83 90 -168 90 -47 0 -77 -6 -108 -21z"/>
<path d="M6438 1080 c-53 -16 -97 -51 -117 -94 -28 -56 -27 -62 10 -70 52 -10
59 -7 76 29 21 43 65 65 135 65 85 0 138 -44 138 -115 0 -29 -9 -32 -156 -55
-67 -10 -136 -25 -152 -34 -66 -34 -102 -107 -88 -180 25 -130 220 -169 363
-71 21 14 39 22 40 18 14 -67 10 -63 64 -63 45 0 50 2 43 18 -4 9 -11 115 -15
235 -9 249 -14 266 -89 305 -37 18 -60 22 -135 21 -49 0 -102 -4 -117 -9z
m239 -339 c-13 -106 -63 -153 -167 -159 -54 -3 -69 0 -91 17 -50 39 -45 107 8
134 15 8 64 20 107 27 44 6 89 16 100 20 44 18 49 13 43 -39z"/>
<path d="M7045 1071 c-94 -43 -136 -118 -143 -252 -5 -104 13 -177 59 -232
108 -130 331 -111 403 35 32 64 33 84 4 92 -53 14 -67 8 -79 -34 -7 -23 -27
-54 -46 -70 -66 -58 -179 -33 -219 48 -15 29 -19 60 -19 143 0 98 2 108 27
146 66 99 212 90 249 -16 10 -27 13 -29 52 -24 23 3 44 7 45 9 2 1 1 17 -3 34
-9 42 -61 99 -110 121 -54 25 -166 25 -220 0z"/>
<path d="M8770 1068 c-58 -30 -90 -78 -90 -135 0 -93 38 -125 205 -172 157
-45 187 -85 114 -153 -25 -24 -38 -28 -90 -28 -38 0 -71 6 -89 16 -29 18 -60
62 -60 87 0 12 -8 15 -37 11 -62 -9 -63 -10 -53 -45 26 -90 95 -140 204 -147
159 -10 258 60 258 179 0 91 -37 121 -207 169 -125 36 -162 61 -151 104 21 85
196 86 231 1 13 -30 20 -35 48 -35 63 0 71 27 28 96 -29 47 -82 68 -181 72
-73 3 -91 0 -130 -20z"/>
<path d="M8080 878 c1 -274 11 -310 100 -355 81 -42 195 -22 255 43 l25 27 0
-42 0 -41 45 0 45 0 0 285 0 285 -50 0 -50 0 0 -177 c0 -98 -5 -194 -10 -214
-32 -113 -194 -146 -242 -49 -15 30 -18 65 -18 238 l0 202 -50 0 -50 0 0 -202z"/>
</g>
</svg>
